<?xml version="1.0" encoding="utf-8"?>
<!-- Svg Vector Icons : http://www.onlinewebfonts.com/icon -->
<!DOCTYPE svg PUBLIC "-//W3C//DTD SVG 1.1//EN" "http://www.w3.org/Graphics/SVG/1.1/DTD/svg11.dtd">
<svg version="1.1" xmlns="http://www.w3.org/2000/svg" xmlns:xlink="http://www.w3.org/1999/xlink" x="0px" y="0px" viewBox="0 0 1000 1000" enable-background="new 0 0 1000 1000" xml:space="preserve">
<metadata> Svg Vector Icons : http://www.onlinewebfonts.com/icon </metadata>
<g><path d="M500,10C229.8,10,10,229.8,10,500c0,270.2,219.8,490,490,490c270.2,0,490-219.8,490-490C990,229.8,770.2,10,500,10z M770.5,129.2c34.7,28.4,64.5,60.9,89.5,97.5c25,36.6,44.4,76.6,58.1,120c13.8,43.4,20.6,88.9,20.6,136.4c0,63.1-11.9,122.3-35.6,177.7c-23.8,55.3-56.3,103.6-97.5,144.8c-41.3,41.2-89.5,73.8-144.8,97.5c-55.3,23.8-114.5,35.6-177.7,35.6c-47.5,0-93-6.9-136.4-20.6c-43.4-13.8-83.4-33.1-120-58.1c-36.6-25-69.1-54.8-97.5-89.5c-28.4-34.7-51.1-72.7-68-113.9c19.4,22.5,41.3,40.8,65.6,54.8c24.4,14.1,50.5,25.2,78.3,33.3c27.8,8.1,56.9,13.7,87.2,16.9c30.3,3.1,61.4,4.7,93.3,4.7c54.4,0,105.2-10.5,152.3-31.4c47.2-20.9,88.1-49.1,122.8-84.4c34.7-35.3,62-76.4,82-123.3c20-46.9,30-96.2,30-148.1c0-31.9-1.9-62.7-5.6-92.3c-3.8-29.7-10.2-58.1-19.2-85.3c-9.1-27.2-20.9-52.5-35.6-75.9c-14.7-23.4-33.3-44.8-55.8-64.2C697.8,78.1,735.8,100.8,770.5,129.2z"/></g>
</svg>