<svg id="图层_1" data-name="图层 1" xmlns="http://www.w3.org/2000/svg" viewBox="0 0 1576.87 1500"><defs><style>.cls-1{fill:#ec4747;}.cls-2{fill:#ed4747;}.cls-3{fill:#fff;}.cls-4{fill:#2c1d1f;}</style></defs><circle cx="945.22" cy="887.71" r="371.49"/><circle class="cls-1" cx="945.22" cy="887.71" r="337"/><path class="cls-2" d="M1282.58,1376.11q12.78,146.09,126.56,142.71,107-6.72,113.09-102.32,5.38-96.95-158.87-145.41-117.13-33-198.92-108.38t-81.12-209.35q14.81-265.9,312.35-285.43,288.8-3.36,323.13,320.43h-202q-39-144-118.47-134.63-82.8,6.74-96.94,61.93-10.77,120.51,156.18,172.33,121.83,41.74,202.62,107.71t88.19,188.48q1.33,154.85-93.24,239.65T1401.06,1710q-315,.66-323.12-333.89Z" transform="translate(-171.57 -210)"/><path class="cls-3" d="M1191.19,1376.11q12.78,146.09,126.56,142.71,107-6.72,113.09-102.32,5.39-96.95-158.87-145.41-117.12-33-198.92-108.38T991.93,953.36q14.8-265.9,312.36-285.43,288.78-3.36,323.12,320.43h-202q-39.06-144-118.48-134.63-82.8,6.74-96.94,61.93-10.77,120.51,156.18,172.33,121.83,41.74,202.62,107.71T1657,1384.18q1.34,154.85-93.24,239.65T1309.67,1710q-315,.66-323.12-333.89Z" transform="translate(-171.57 -210)"/><polygon class="cls-4" points="854.24 1072.85 641.49 324.21 504.75 324.21 717.5 1072.85 854.24 1072.85"/><path class="cls-3" d="M933.59,1214.37H720.87L667,1009.73H438.14l-53.85,204.64H171.57L446.22,210H648.17ZM545.85,535.81l-61.93,280H615.86Z" transform="translate(-171.57 -210)"/><path class="cls-3" d="M1137,1249.29H927.31l22.32,84.79h212.72Q1149.66,1291.69,1137,1249.29Z" transform="translate(-171.57 -210)"/></svg>